<svg width="16" height="18" viewBox="0 0 16 18" xmlns="http://www.w3.org/2000/svg">
<path fill-rule="evenodd" fill="#c09578" clip-rule="evenodd" d="M9.90338 18C9.68938 18 9.47738 17.932 9.30038 17.797L5.27438 14.752C5.02438 14.563 4.87738 14.268 4.87738 13.955V10.681L0.111381 1.459C-0.0486186 1.149 -0.0356186 0.778 0.146381 0.48C0.327381 0.182 0.651381 0 1.00038 0H15.0004C15.3524 0 15.6784 0.185 15.8594 0.488C16.0394 0.79 16.0474 1.166 15.8804 1.475L10.9034 10.69V17C10.9034 17.379 10.6884 17.726 10.3484 17.896C10.2074 17.965 10.0554 18 9.90338 18Z"/>
</svg>
